<?xml version="1.0" encoding="UTF-8" standalone="no"?>
<svg
   version="1.0"
   width="705.20825pt"
   height="512.93347pt"
   viewBox="0 0 705.20825 512.93347"
   preserveAspectRatio="xMidYMid"
   id="svg144"
   sodipodi:docname="_aff4b435-2d13-495a-986b-dab32ad2c9b2.svg"
   inkscape:version="1.2.1 (9c6d41e, 2022-07-14)"
   xmlns:inkscape="http://www.inkscape.org/namespaces/inkscape"
   xmlns:sodipodi="http://sodipodi.sourceforge.net/DTD/sodipodi-0.dtd"
   xmlns="http://www.w3.org/2000/svg"
   xmlns:svg="http://www.w3.org/2000/svg">
  <defs
     id="defs148" />
  <sodipodi:namedview
     id="namedview146"
     pagecolor="#ffffff"
     bordercolor="#000000"
     borderopacity="0.25"
     inkscape:showpageshadow="2"
     inkscape:pageopacity="0.0"
     inkscape:pagecheckerboard="0"
     inkscape:deskcolor="#d1d1d1"
     inkscape:document-units="pt"
     showgrid="false"
     inkscape:zoom="0.17285156"
     inkscape:cx="480.18079"
     inkscape:cy="329.76271"
     inkscape:window-width="1309"
     inkscape:window-height="456"
     inkscape:window-x="0"
     inkscape:window-y="25"
     inkscape:window-maximized="0"
     inkscape:current-layer="svg144" />
  <metadata
     id="metadata132">
Created by potrace 1.16, written by Peter Selinger 2001-2019
</metadata>
  <g
     transform="matrix(0.1,0,0,-0.1,-153.6,757.88012)"
     fill="#000000"
     stroke="none"
     id="g142">
    <path
       d="m 6795,7560 c -349,-62 -742,-249 -1265,-600 -180,-121 -563,-404 -568,-419 -5,-14 34,-38 353,-216 434,-243 929,-531 933,-543 3,-9 -116,-114 -195,-172 l -32,-23 -63,38 c -152,91 -491,288 -828,483 -201,115 -471,272 -600,348 -129,75 -329,185 -445,244 -316,161 -488,210 -736,210 -171,0 -295,-27 -421,-91 -270,-138 -498,-531 -498,-858 0,-130 22,-219 86,-341 143,-277 410,-503 1169,-992 1374,-885 2252,-1403 2795,-1648 580,-262 993,-346 1333,-270 159,35 334,133 431,241 55,61 175,240 235,350 134,246 144,490 33,777 -39,102 -171,302 -238,363 -49,44 -62,44 -109,-4 -70,-69 -69,-82 14,-184 89,-110 176,-279 197,-383 21,-102 14,-244 -16,-325 -49,-131 -162,-233 -318,-289 -80,-28 -100,-30 -248,-34 -136,-3 -179,-1 -280,19 -424,80 -977,340 -1869,881 -191,116 -1024,639 -1165,733 -19,13 -107,69 -195,125 -367,236 -1005,660 -1130,752 -103,76 -215,188 -268,268 -208,315 -57,659 311,710 118,16 215,1 317,-49 44,-22 204,-117 355,-212 236,-148 567,-353 1080,-669 288,-178 706,-442 719,-455 11,-11 -4,-27 -90,-99 -57,-47 -109,-86 -115,-86 -7,0 -151,87 -320,193 -170,106 -381,237 -469,292 -230,142 -806,501 -1047,653 -114,72 -230,138 -258,147 -74,24 -172,21 -223,-7 -90,-50 -110,-134 -58,-243 56,-119 141,-185 731,-567 47,-30 182,-118 300,-195 210,-136 533,-344 953,-612 187,-120 210,-132 225,-119 103,87 217,181 308,254 145,117 404,329 634,519 396,326 657,538 669,543 7,2 184,-171 189,-187 1,-4 -82,-78 -185,-163 -407,-337 -804,-664 -1082,-892 -161,-131 -291,-242 -289,-247 2,-4 52,-40 113,-78 92,-58 112,-68 125,-57 132,111 291,243 400,331 144,117 386,316 584,480 373,308 506,415 518,414 7,0 50,-43 96,-96 l 84,-95 -24,-25 c -13,-14 -117,-103 -233,-198 -1131,-930 -1181,-972 -1174,-979 9,-8 117,-74 170,-104 l 56,-32 65,53 c 36,28 139,113 229,188 90,75 279,230 419,345 140,114 346,283 457,376 111,92 208,168 215,167 17,0 179,-189 173,-200 -5,-7 -393,-333 -517,-434 -281,-229 -481,-393 -608,-499 -85,-71 -157,-131 -159,-132 -25,-21 424,-239 709,-343 326,-120 599,-144 752,-65 120,62 170,183 134,324 -27,106 -109,230 -261,399 -47,52 -85,101 -85,108 0,8 47,69 105,136 134,155 222,278 236,331 15,53 6,133 -19,182 -30,57 -106,148 -355,428 -122,137 -235,265 -251,283 l -29,35 56,116 c 102,214 132,339 131,547 0,175 -18,252 -91,399 -95,190 -275,346 -464,400 -32,9 -103,20 -160,25 -88,7 -105,11 -121,31 -46,56 -4,133 79,146 75,11 241,-3 318,-27 442,-137 722,-592 674,-1096 -12,-135 -42,-263 -85,-370 -19,-46 -34,-92 -34,-101 1,-29 68,-111 96,-118 40,-10 55,4 97,86 103,205 155,505 128,738 -65,552 -434,967 -928,1041 -103,16 -253,12 -368,-9 z"
       id="path134" />
    <path
       d="m 2268,5312 c -78,-79 -92,-110 -86,-191 6,-72 32,-134 119,-274 27,-43 49,-85 49,-92 0,-7 -36,-53 -80,-101 -161,-176 -234,-324 -261,-528 -49,-374 180,-727 595,-921 201,-94 331,-124 566,-132 151,-5 193,-2 305,17 72,12 185,39 252,61 118,38 337,139 425,196 24,15 45,28 46,29 9,6 -87,115 -333,378 -6,6 -118,130 -250,276 -303,335 -567,620 -636,686 -30,28 -126,113 -214,189 -206,179 -298,272 -369,373 -32,45 -61,84 -65,86 -4,3 -33,-21 -63,-52 z"
       id="path136" />
    <path
       d="m 1875,4858 c -122,-134 -220,-310 -278,-498 -50,-160 -61,-241 -61,-420 1,-231 35,-375 138,-580 151,-302 391,-535 726,-703 407,-205 827,-257 1298,-161 373,76 717,229 1182,527 134,86 368,245 393,267 8,7 -301,206 -359,232 -18,9 -37,-1 -130,-69 -409,-299 -750,-485 -1037,-568 -181,-53 -308,-69 -522,-69 -177,0 -214,3 -325,27 -158,33 -258,66 -388,127 -300,142 -523,351 -650,612 -145,295 -140,620 14,929 39,79 68,122 147,221 27,34 29,40 17,67 -25,61 -69,121 -89,121 -11,0 -44,-27 -76,-62 z"
       id="path138" />
    <path
       d="m 3850,4175 c 0,-4 39,-51 88,-104 255,-283 443,-489 468,-513 l 29,-26 102,71 c 56,40 102,74 103,77 0,3 -39,29 -88,59 -76,48 -201,127 -587,371 -114,72 -115,72 -115,65 z"
       id="path140" />
  </g>
</svg>
