<svg xmlns="http://www.w3.org/2000/svg" width="400" height="400" viewBox="0 0 400 400" version="1.1"><path d="M 329.570 93.922 C 328.218 95.416, 327.578 98.273, 327.109 104.900 C 326.761 109.827, 326.181 114.152, 325.822 114.511 C 324.195 116.138, 313.192 113.525, 306.228 109.857 L 298.905 106 296.426 108.674 L 293.947 111.349 288.636 109.674 C 285.714 108.753, 281.013 108, 278.188 108 C 273.492 108, 272.918 108.257, 271.500 111 C 270.647 112.650, 269.762 114, 269.535 114 C 269.307 114, 263.596 112.651, 256.843 111.002 C 244.485 107.984, 241.963 107.952, 238.750 110.773 C 235.920 113.258, 236.619 116.541, 240.694 119.900 C 245.260 123.663, 244.436 124.820, 238.739 122.644 C 233.881 120.789, 225.841 120.479, 222.934 122.035 C 219.759 123.734, 220.584 127.392, 225.052 131.428 C 227.281 133.442, 230.255 135.527, 231.661 136.061 C 234.938 137.307, 233.701 138.980, 227.268 142.004 C 219.841 145.495, 204.934 147.915, 184 149.027 C 173.275 149.597, 161.591 150.528, 158.036 151.096 C 146.598 152.923, 136.974 158.116, 123.315 169.832 C 114.745 177.182, 108.213 181, 104.209 181 C 100.909 181, 96 179.175, 96 177.948 C 96 175.865, 86.518 166.961, 83.376 166.093 C 78.657 164.790, 69.659 166.262, 58.611 170.142 C 50.645 172.940, 48.875 173.212, 41.572 172.756 C 35.353 172.368, 32.133 171.594, 27.979 169.490 C 18.955 164.917, 12 165.995, 12 171.967 C 12 175.381, 18.662 185.803, 24.261 191.148 C 30.018 196.644, 34.607 198.810, 43.391 200.176 C 51.058 201.368, 60.471 200.544, 69.515 197.890 C 73.247 196.795, 74.022 196.950, 80.515 200.091 C 86.863 203.162, 88.483 203.504, 98.288 203.847 C 110.389 204.270, 108.575 203.154, 116.281 214.911 C 124.370 227.250, 133.892 236.071, 147.070 243.431 C 162.962 252.308, 168.012 257.190, 170.172 265.768 C 170.824 268.357, 172.200 270.740, 173.557 271.629 C 176.005 273.233, 187.335 273.769, 194.500 272.620 C 196.700 272.267, 199.096 272.368, 199.824 272.844 C 201.905 274.205, 198.781 276.692, 193.970 277.505 C 188.427 278.442, 185.397 283.105, 184.473 292.123 C 183.323 303.343, 186.479 305.619, 195.371 299.980 C 197.990 298.319, 202.996 295.662, 206.494 294.076 C 211.361 291.869, 213.466 290.222, 215.463 287.059 C 216.898 284.786, 218.491 283.185, 219.003 283.502 C 219.515 283.818, 221.342 286.422, 223.062 289.289 C 227.108 296.028, 229.818 297.960, 236.251 298.691 C 240.649 299.191, 242.263 299.994, 246.207 303.644 C 251.644 308.675, 253.323 308.909, 262.246 305.871 C 273.718 301.966, 274.613 299.259, 266.500 293 C 263.475 290.666, 261 288.017, 261 287.113 C 261 282.582, 257.436 278.890, 248.992 274.674 C 239.020 269.694, 238.141 267.930, 243.515 263.675 C 246.923 260.975, 247.558 260.849, 257.791 260.834 C 263.681 260.826, 270.744 261.271, 273.486 261.824 C 280.194 263.177, 283.755 261.595, 287.823 255.454 C 291.634 249.701, 291.740 247.682, 288.593 240.780 C 286.067 235.238, 283.590 227.050, 282.543 220.787 C 282.202 218.745, 280.776 214.568, 279.374 211.505 L 276.824 205.937 278.940 198.971 C 281.378 190.944, 284.408 187.087, 292.643 181.523 C 295.864 179.347, 300.975 175.701, 304 173.421 C 307.025 171.142, 312.582 167.392, 316.349 165.088 C 322.880 161.095, 323.310 160.973, 325.599 162.473 C 326.920 163.338, 328 164.490, 328 165.032 C 328 166.604, 333.397 171.821, 336.065 172.828 C 337.404 173.333, 341.875 174.312, 346 175.004 C 352.292 176.058, 353.987 176.776, 356.521 179.459 C 358.183 181.218, 360.217 184.830, 361.042 187.486 C 362.895 193.453, 366.269 196.127, 372.726 196.748 C 377.579 197.214, 377.626 197.190, 382.801 191.528 C 387.923 185.923, 388.540 184.399, 388.059 178.539 C 387.777 175.113, 383.518 166.344, 377.617 157.037 C 375.352 153.467, 371.025 145.586, 368 139.523 C 362.941 129.385, 362.030 128.179, 356.647 124.500 C 351.199 120.776, 350.456 119.775, 345.892 110 C 338.106 93.325, 337.594 92.538, 334.310 92.201 C 332.379 92.004, 330.782 92.583, 329.570 93.922 M 332.407 100.513 C 332.061 101.895, 331.715 106.732, 331.638 111.263 L 331.500 119.500 322.500 119.479 C 314.515 119.460, 312.746 119.103, 306.816 116.313 L 300.133 113.167 298.749 115.252 L 297.364 117.337 288.718 115.168 C 278.793 112.679, 275.576 112.442, 276.256 114.250 C 277.998 118.886, 278.064 120.038, 276.621 120.592 C 275.786 120.912, 268.726 119.560, 260.932 117.587 C 240.186 112.336, 236.934 112.920, 250.074 119.537 C 259.483 124.276, 259.501 127.474, 250.132 129.487 C 247.857 129.976, 243.722 129.468, 237.397 127.923 C 224.307 124.725, 223.662 126.561, 235.750 132.608 C 241.427 135.448, 242.083 136.917, 239.034 139.966 C 229.845 149.155, 212.141 153.328, 175.500 154.942 C 150.326 156.050, 146.830 157.343, 128 172.500 C 116.114 182.067, 110.855 185.262, 105.222 186.336 C 100.139 187.305, 94.928 184.671, 90.685 178.987 C 85.164 171.592, 83.189 170.609, 75.209 171.285 C 71.420 171.606, 64.801 173.232, 60 175.023 C 52.099 177.969, 50.831 178.158, 42 177.715 C 33.934 177.310, 31.470 176.748, 25.678 173.991 C 16.844 169.786, 15.540 170.814, 20.289 178.238 C 24.915 185.470, 30.500 190.827, 36 193.309 C 42.403 196.198, 53.807 196.706, 62.025 194.467 C 73.436 191.359, 75.254 191.422, 81.703 195.149 C 87.383 198.432, 87.748 198.502, 99.762 198.592 L 112.025 198.685 117.762 207.997 C 125.597 220.711, 136.228 231.423, 146.929 237.384 C 164.896 247.394, 172.987 255.085, 174.601 263.688 C 174.945 265.522, 175.738 267.355, 176.363 267.761 C 176.989 268.167, 183.668 268.500, 191.208 268.500 C 202.692 268.500, 205.188 268.772, 206.597 270.175 C 208.172 271.743, 208.109 272.138, 205.615 276.394 C 203.145 280.609, 202.585 280.986, 197.865 281.612 C 193.381 282.207, 192.628 282.656, 191.512 285.394 C 190.816 287.102, 189.927 290.715, 189.536 293.422 L 188.826 298.344 191.663 296.519 C 193.223 295.516, 196.140 293.413, 198.144 291.847 C 200.148 290.281, 202.554 289, 203.490 289 C 206.350 289, 210.851 285.774, 212.059 282.858 C 213.266 279.943, 216.945 277, 219.382 277 C 220.180 277, 223.328 280.560, 226.378 284.912 C 230.530 290.839, 232.648 292.983, 234.817 293.460 C 236.410 293.810, 238.115 294.021, 238.606 293.929 C 241.883 293.320, 244.685 294.560, 248.869 298.475 L 253.653 302.949 259.360 301.326 C 262.499 300.433, 264.908 299.225, 264.714 298.642 C 264.520 298.059, 262.261 296.214, 259.693 294.541 C 255.641 291.900, 255.053 291.087, 255.228 288.362 C 255.503 284.093, 254.369 283.005, 244.579 278.154 C 235.390 273.601, 231.449 269.870, 232.947 267.143 C 233.443 266.239, 236.055 263.344, 238.750 260.709 L 243.651 255.919 255.576 255.373 C 264.756 254.953, 268.638 255.184, 272.445 256.375 C 278.508 258.271, 281.263 257.228, 284.333 251.875 L 286.411 248.250 283.167 241.211 C 281.383 237.340, 279.215 230.421, 278.351 225.836 C 277.486 221.251, 275.654 215.279, 274.279 212.565 C 272.278 208.616, 271.900 206.745, 272.387 203.197 C 273.237 196.991, 277.582 187.783, 281.336 184.233 C 286.462 179.383, 312.695 161.215, 319.858 157.554 C 324.577 155.141, 327.321 156.197, 332.105 162.266 C 336.691 168.084, 338.249 168.943, 345.500 169.658 C 348.250 169.929, 351.952 170.599, 353.726 171.145 C 357.866 172.421, 364.460 179.904, 366.171 185.268 C 367.255 188.664, 368.191 189.695, 371.245 190.850 L 374.991 192.268 378.959 187.884 C 381.142 185.473, 383.200 182.709, 383.534 181.742 C 384.301 179.516, 380.882 172.029, 373.757 160.334 C 370.690 155.299, 365.872 146.687, 363.051 141.195 C 359.023 133.352, 357.280 130.944, 354.927 129.970 C 349.888 127.882, 344.737 120.876, 339.597 109.119 C 336.924 103.004, 334.354 98, 333.887 98 C 333.420 98, 332.754 99.131, 332.407 100.513 M 184.348 217.535 C 182.767 221.656, 192.022 243.007, 198.587 250.385 C 202.599 254.894, 205.364 255.949, 210.051 254.759 C 213.169 253.968, 214.474 254.229, 218.858 256.521 C 224.640 259.545, 227 259.258, 227 255.531 C 227 254.139, 227.113 252.739, 227.250 252.421 C 227.387 252.102, 224.555 250.812, 220.956 249.553 C 204.817 243.909, 203.593 240.251, 217.342 238.753 C 221.742 238.273, 222.420 238.489, 224.758 241.112 C 228.268 245.052, 234.118 245.232, 235.839 241.453 C 237.316 238.212, 237.207 229.680, 235.623 224.500 C 234.590 221.123, 234.018 220.540, 231.950 220.755 C 213.376 222.688, 201.904 221.867, 191.713 217.875 C 185.911 215.602, 185.104 215.565, 184.348 217.535 M 191 225.241 C 191 229.567, 203.606 250, 206.275 250 C 206.844 250, 206.597 249.212, 205.725 248.248 C 203.250 245.513, 202.162 241.750, 203.112 239.206 C 204.332 235.938, 209.711 234.050, 218.553 233.786 C 226.268 233.556, 227.918 234.254, 229.273 238.319 C 230.056 240.667, 232 237.604, 232 234.023 C 232 226.919, 232.157 227, 218.442 227 C 210.695 227, 203.953 226.441, 200.339 225.500 C 193.332 223.675, 191 223.610, 191 225.241 M 254.928 235.250 C 253.307 238.688, 251.463 242.226, 250.831 243.114 C 248.155 246.873, 253.548 249.982, 262.765 249.994 C 266.506 249.999, 267.273 249.601, 269.011 246.750 C 270.101 244.963, 270.994 243.244, 270.996 242.930 C 270.998 242.617, 269.597 240.817, 267.881 238.930 C 266.166 237.044, 264.135 234.037, 263.368 232.250 C 261.084 226.928, 258.402 227.881, 254.928 235.250 M 257.975 240.565 C 256.499 244.447, 256.744 245, 259.941 245 C 263.730 245, 264.578 243.531, 262.563 240.456 C 260.506 237.317, 259.199 237.348, 257.975 240.565" stroke="none" fill="#000000" fill-rule="evenodd"/><path d="M 332.407 100.513 C 332.061 101.895, 331.715 106.732, 331.638 111.263 L 331.500 119.500 322.500 119.479 C 314.515 119.460, 312.746 119.103, 306.816 116.313 L 300.133 113.167 298.749 115.252 L 297.364 117.337 288.718 115.168 C 278.793 112.679, 275.576 112.442, 276.256 114.250 C 277.998 118.886, 278.064 120.038, 276.621 120.592 C 275.786 120.912, 268.726 119.560, 260.932 117.587 C 240.186 112.336, 236.934 112.920, 250.074 119.537 C 259.483 124.276, 259.501 127.474, 250.132 129.487 C 247.857 129.976, 243.722 129.468, 237.397 127.923 C 224.307 124.725, 223.662 126.561, 235.750 132.608 C 241.427 135.448, 242.083 136.917, 239.034 139.966 C 229.845 149.155, 212.141 153.328, 175.500 154.942 C 150.326 156.050, 146.830 157.343, 128 172.500 C 116.114 182.067, 110.855 185.262, 105.222 186.336 C 100.139 187.305, 94.928 184.671, 90.685 178.987 C 85.164 171.592, 83.189 170.609, 75.209 171.285 C 71.420 171.606, 64.801 173.232, 60 175.023 C 52.099 177.969, 50.831 178.158, 42 177.715 C 33.934 177.310, 31.470 176.748, 25.678 173.991 C 16.844 169.786, 15.540 170.814, 20.289 178.238 C 24.915 185.470, 30.500 190.827, 36 193.309 C 42.403 196.198, 53.807 196.706, 62.025 194.467 C 73.436 191.359, 75.254 191.422, 81.703 195.149 C 87.383 198.432, 87.748 198.502, 99.762 198.592 L 112.025 198.685 117.762 207.997 C 125.597 220.711, 136.228 231.423, 146.929 237.384 C 164.896 247.394, 172.987 255.085, 174.601 263.688 C 174.945 265.522, 175.738 267.355, 176.363 267.761 C 176.989 268.167, 183.668 268.500, 191.208 268.500 C 202.692 268.500, 205.188 268.772, 206.597 270.175 C 208.172 271.743, 208.109 272.138, 205.615 276.394 C 203.145 280.609, 202.585 280.986, 197.865 281.612 C 193.381 282.207, 192.628 282.656, 191.512 285.394 C 190.816 287.102, 189.927 290.715, 189.536 293.422 L 188.826 298.344 191.663 296.519 C 193.223 295.516, 196.140 293.413, 198.144 291.847 C 200.148 290.281, 202.554 289, 203.490 289 C 206.350 289, 210.851 285.774, 212.059 282.858 C 213.266 279.943, 216.945 277, 219.382 277 C 220.180 277, 223.328 280.560, 226.378 284.912 C 230.530 290.839, 232.648 292.983, 234.817 293.460 C 236.410 293.810, 238.115 294.021, 238.606 293.929 C 241.883 293.320, 244.685 294.560, 248.869 298.475 L 253.653 302.949 259.360 301.326 C 262.499 300.433, 264.908 299.225, 264.714 298.642 C 264.520 298.059, 262.261 296.214, 259.693 294.541 C 255.641 291.900, 255.053 291.087, 255.228 288.362 C 255.503 284.093, 254.369 283.005, 244.579 278.154 C 235.390 273.601, 231.449 269.870, 232.947 267.143 C 233.443 266.239, 236.055 263.344, 238.750 260.709 L 243.651 255.919 255.576 255.373 C 264.756 254.953, 268.638 255.184, 272.445 256.375 C 278.508 258.271, 281.263 257.228, 284.333 251.875 L 286.411 248.250 283.167 241.211 C 281.383 237.340, 279.215 230.421, 278.351 225.836 C 277.486 221.251, 275.654 215.279, 274.279 212.565 C 272.278 208.616, 271.900 206.745, 272.387 203.197 C 273.237 196.991, 277.582 187.783, 281.336 184.233 C 286.462 179.383, 312.695 161.215, 319.858 157.554 C 324.577 155.141, 327.321 156.197, 332.105 162.266 C 336.691 168.084, 338.249 168.943, 345.500 169.658 C 348.250 169.929, 351.952 170.599, 353.726 171.145 C 357.866 172.421, 364.460 179.904, 366.171 185.268 C 367.255 188.664, 368.191 189.695, 371.245 190.850 L 374.991 192.268 378.959 187.884 C 381.142 185.473, 383.200 182.709, 383.534 181.742 C 384.301 179.516, 380.882 172.029, 373.757 160.334 C 370.690 155.299, 365.872 146.687, 363.051 141.195 C 359.023 133.352, 357.280 130.944, 354.927 129.970 C 349.888 127.882, 344.737 120.876, 339.597 109.119 C 336.924 103.004, 334.354 98, 333.887 98 C 333.420 98, 332.754 99.131, 332.407 100.513 M 184.348 217.535 C 182.767 221.656, 192.022 243.007, 198.587 250.385 C 202.599 254.894, 205.364 255.949, 210.051 254.759 C 213.169 253.968, 214.474 254.229, 218.858 256.521 C 224.640 259.545, 227 259.258, 227 255.531 C 227 254.139, 227.113 252.739, 227.250 252.421 C 227.387 252.102, 224.555 250.812, 220.956 249.553 C 204.817 243.909, 203.593 240.251, 217.342 238.753 C 221.742 238.273, 222.420 238.489, 224.758 241.112 C 228.268 245.052, 234.118 245.232, 235.839 241.453 C 237.316 238.212, 237.207 229.680, 235.623 224.500 C 234.590 221.123, 234.018 220.540, 231.950 220.755 C 213.376 222.688, 201.904 221.867, 191.713 217.875 C 185.911 215.602, 185.104 215.565, 184.348 217.535 M 254.928 235.250 C 253.307 238.688, 251.463 242.226, 250.831 243.114 C 248.155 246.873, 253.548 249.982, 262.765 249.994 C 266.506 249.999, 267.273 249.601, 269.011 246.750 C 270.101 244.963, 270.994 243.244, 270.996 242.930 C 270.998 242.617, 269.597 240.817, 267.881 238.930 C 266.166 237.044, 264.135 234.037, 263.368 232.250 C 261.084 226.928, 258.402 227.881, 254.928 235.250" stroke="none" fill="#fa625c" fill-rule="evenodd"/></svg>