<?xml version="1.0" encoding="UTF-8" standalone="no"?>
<svg
   width="376.19241"
   height="215.69098"
   viewBox="0 0 376.19241 215.69098"
   version="1.1"
   id="svg136"
   sodipodi:docname="rhs-logo.svg"
   inkscape:version="1.2.1 (9c6d41e, 2022-07-14)"
   xmlns:inkscape="http://www.inkscape.org/namespaces/inkscape"
   xmlns:sodipodi="http://sodipodi.sourceforge.net/DTD/sodipodi-0.dtd"
   xmlns="http://www.w3.org/2000/svg"
   xmlns:svg="http://www.w3.org/2000/svg">
  <defs
     id="defs140" />
  <sodipodi:namedview
     id="namedview138"
     pagecolor="#ffffff"
     bordercolor="#000000"
     borderopacity="0.25"
     inkscape:showpageshadow="2"
     inkscape:pageopacity="0.0"
     inkscape:pagecheckerboard="0"
     inkscape:deskcolor="#d1d1d1"
     showgrid="false"
     inkscape:zoom="0.59"
     inkscape:cx="188.13559"
     inkscape:cy="108.47458"
     inkscape:window-width="1309"
     inkscape:window-height="456"
     inkscape:window-x="0"
     inkscape:window-y="25"
     inkscape:window-maximized="0"
     inkscape:current-layer="svg136" />
  <path
     d="m 317.57,1.7585415 c -1.352,1.494 -1.992,4.351 -2.461,10.9779995 -0.348,4.927 -0.928,9.252 -1.287,9.611 -1.627,1.627 -12.63,-0.986 -19.594,-4.654 l -7.323,-3.857 -2.479,2.674 -2.479,2.675 -5.311,-1.675 c -2.922,-0.921 -7.623,-1.674 -10.448,-1.674 -4.696,0 -5.27,0.257 -6.688,3 -0.853,1.65 -1.738,3 -1.965,3 -0.228,0 -5.939,-1.349 -12.692,-2.998 -12.358,-3.018 -14.88,-3.05 -18.093,-0.229 -2.83,2.485 -2.131,5.768 1.944,9.127 4.566,3.763 3.742,4.92 -1.955,2.744 -4.858,-1.855 -12.898,-2.165 -15.805,-0.609 -3.175,1.699 -2.35,5.357 2.118,9.393 2.229,2.014 5.203,4.099 6.609,4.633 3.277,1.246 2.04,2.919 -4.393,5.943 -7.427,3.491 -22.334,5.911 -43.268,7.023 -10.725,0.57 -22.409,1.501 -25.964,2.069 -11.438,1.827 -21.062,7.02 -34.721,18.736 -8.57,7.35 -15.102,11.168 -19.106,11.168 -3.3,0 -8.209,-1.825 -8.209,-3.052 0,-2.083 -9.482,-10.987 -12.624,-11.855 -4.719,-1.303 -13.717,0.169 -24.765,4.049 -7.966,2.798 -9.736,3.07 -17.039,2.614 -6.219,-0.388 -9.439,-1.162 -13.593,-3.266 -9.024,-4.573 -15.979,-3.495 -15.979,2.477 0,3.414 6.662,13.836 12.261,19.181 5.757,5.495999 10.346,7.661999 19.13,9.027999 7.667,1.192 17.08,0.368 26.124,-2.286 3.732,-1.095 4.507,-0.94 11,2.201 6.348,3.071 7.968,3.413 17.773,3.756 12.101,0.423 10.287,-0.693 17.993,11.064 8.089,12.339 17.611,21.16 30.789,28.52 15.892,8.877 20.942,13.759 23.102,22.337 0.652,2.589 2.028,4.972 3.385,5.861 2.448,1.604 13.778,2.14 20.943,0.991 2.2,-0.353 4.596,-0.252 5.324,0.224 2.081,1.361 -1.043,3.848 -5.854,4.661 -5.543,0.937 -8.573,5.6 -9.497,14.618 -1.15,11.22 2.006,13.496 10.898,7.857 2.619,-1.661 7.625,-4.318 11.123,-5.904 4.867,-2.207 6.972,-3.854 8.969,-7.017 1.435,-2.273 3.028,-3.874 3.54,-3.557 0.512,0.316 2.339,2.92 4.059,5.787 4.046,6.739 6.756,8.671 13.189,9.402 4.398,0.5 6.012,1.303 9.956,4.953 5.437,5.031 7.116,5.265 16.039,2.227 11.472,-3.905 12.367,-6.612 4.254,-12.871 -3.025,-2.334 -5.5,-4.983 -5.5,-5.887 0,-4.531 -3.564,-8.223 -12.008,-12.439 -9.972,-4.98 -10.851,-6.744 -5.477,-10.999 3.408,-2.7 4.043,-2.826 14.276,-2.841 5.89,-0.008 12.953,0.437 15.695,0.99 6.708,1.353 10.269,-0.229 14.337,-6.37 3.811,-5.753 3.917,-7.772 0.77,-14.674 -2.526,-5.542 -5.003,-13.73 -6.05,-19.993 -0.341,-2.042 -1.767,-6.219 -3.169,-9.282 l -2.55,-5.568 2.116,-6.966 c 2.438,-8.026999 5.468,-11.883999 13.703,-17.447999 3.221,-2.176 8.332,-5.822 11.357,-8.102 3.025,-2.279 8.582,-6.029 12.349,-8.333 6.531,-3.993 6.961,-4.115 9.25,-2.615 1.321,0.865 2.401,2.017 2.401,2.559 0,1.572 5.397,6.789 8.065,7.796 1.339,0.505 5.81,1.484 9.935,2.176 6.292,1.054 7.987,1.772 10.521,4.455 1.662,1.759 3.696,5.371 4.521,8.027 1.853,5.966999 5.227,8.640999 11.684,9.261999 4.853,0.466 4.9,0.442 10.075,-5.219999 5.122,-5.605 5.739,-7.129 5.258,-12.989 -0.282,-3.426 -4.541,-12.195 -10.442,-21.502 -2.265,-3.57 -6.592,-11.451 -9.617,-17.514 -5.059,-10.138 -5.97,-11.344 -11.353,-15.023 -5.448,-3.724 -6.191,-4.725 -10.755,-14.5 C 326.106,1.1615415 325.594,0.37454149 322.31,0.03754149 c -1.931,-0.197 -3.528,0.382 -4.74,1.72100001 m 2.837,6.591 c -0.346,1.382 -0.692,6.2189995 -0.769,10.7499995 l -0.138,8.237 -9,-0.021 c -7.985,-0.019 -9.754,-0.376 -15.684,-3.166 l -6.683,-3.146 -1.384,2.085 -1.385,2.085 -8.646,-2.169 c -9.925,-2.489 -13.142,-2.726 -12.462,-0.918 1.742,4.636 1.808,5.788 0.365,6.342 -0.835,0.32 -7.895,-1.032 -15.689,-3.005 -20.746,-5.251 -23.998,-4.667 -10.858,1.95 9.409,4.739 9.427,7.937 0.058,9.95 -2.275,0.489 -6.41,-0.019 -12.735,-1.564 -13.09,-3.198 -13.735,-1.362 -1.647,4.685 5.677,2.84 6.333,4.309 3.284,7.358 -9.189,9.189 -26.893,13.362 -63.534,14.976 -25.174,1.108 -28.67,2.401 -47.5,17.558 -11.886,9.567 -17.145,12.762 -22.778,13.836 -5.083,0.969 -10.294,-1.665 -14.537,-7.349 -5.521,-7.395 -7.496,-8.378 -15.476,-7.702 -3.789,0.321 -10.408,1.947 -15.209,3.738 -7.901,2.946 -9.169,3.135 -18,2.692 -8.066,-0.405 -10.53,-0.967 -16.322,-3.724 -8.834,-4.205 -10.138,-3.177 -5.389,4.247 4.626,7.232 10.211,12.589 15.711,15.070999 6.403,2.889 17.807,3.397 26.025,1.158 11.411,-3.107999 13.229,-3.044999 19.678,0.682 5.68,3.283 6.045,3.353 18.059,3.443 l 12.263,0.093 5.737,9.312 c 7.835,12.714 18.466,23.426 29.167,29.387 17.967,10.01 26.058,17.701 27.672,26.304 0.344,1.834 1.137,3.667 1.762,4.073 0.626,0.406 7.305,0.739 14.845,0.739 11.484,0 13.98,0.272 15.389,1.675 1.575,1.568 1.512,1.963 -0.982,6.219 -2.47,4.215 -3.03,4.592 -7.75,5.218 -4.484,0.595 -5.237,1.044 -6.353,3.782 -0.696,1.708 -1.585,5.321 -1.976,8.028 l -0.71,4.922 2.837,-1.825 c 1.56,-1.003 4.477,-3.106 6.481,-4.672 2.004,-1.566 4.41,-2.847 5.346,-2.847 2.86,0 7.361,-3.226 8.569,-6.142 1.207,-2.915 4.886,-5.858 7.323,-5.858 0.798,0 3.946,3.56 6.996,7.912 4.152,5.927 6.27,8.071 8.439,8.548 1.593,0.35 3.298,0.561 3.789,0.469 3.277,-0.609 6.079,0.631 10.263,4.546 l 4.784,4.474 5.707,-1.623 c 3.139,-0.893 5.548,-2.101 5.354,-2.684 -0.194,-0.583 -2.453,-2.428 -5.021,-4.101 -4.052,-2.641 -4.64,-3.454 -4.465,-6.179 0.275,-4.269 -0.859,-5.357 -10.649,-10.208 -9.189,-4.553 -13.13,-8.284 -11.632,-11.011 0.496,-0.904 3.108,-3.799 5.803,-6.434 l 4.901,-4.79 11.925,-0.546 c 9.18,-0.42 13.062,-0.189 16.869,1.002 6.063,1.896 8.818,0.853 11.888,-4.5 l 2.078,-3.625 -3.244,-7.039 c -1.784,-3.871 -3.952,-10.79 -4.816,-15.375 -0.865,-4.585 -2.697,-10.557 -4.072,-13.271 -2.001,-3.949 -2.379,-5.82 -1.892,-9.368 0.85,-6.206 5.195,-15.413999 8.949,-18.963999 5.126,-4.85 31.359,-23.018 38.522,-26.679 4.719,-2.413 7.463,-1.357 12.247,4.712 4.586,5.818 6.144,6.677 13.395,7.392 2.75,0.271 6.452,0.941 8.226,1.487 4.14,1.276 10.734,8.759 12.445,14.123 1.084,3.396 2.02,4.427 5.074,5.582 l 3.746,1.417999 3.968,-4.383999 c 2.183,-2.411 4.241,-5.175 4.575,-6.142 0.767,-2.226 -2.652,-9.713 -9.777,-21.408 -3.067,-5.035 -7.885,-13.647 -10.706,-19.139 -4.028,-7.843 -5.771,-10.251 -8.124,-11.225 -5.039,-2.088 -10.19,-9.094 -15.33,-20.851 -2.673,-6.115 -5.243,-11.1189995 -5.71,-11.1189995 -0.467,0 -1.133,1.131 -1.48,2.513 M 172.348,125.37154 c -1.581,4.121 7.674,25.472 14.239,32.85 4.012,4.509 6.777,5.564 11.464,4.374 3.118,-0.791 4.423,-0.53 8.807,1.762 5.782,3.024 8.142,2.737 8.142,-0.99 0,-1.392 0.113,-2.792 0.25,-3.11 0.137,-0.319 -2.695,-1.609 -6.294,-2.868 -16.139,-5.644 -17.363,-9.302 -3.614,-10.8 4.4,-0.48 5.078,-0.264 7.416,2.359 3.51,3.94 9.36,4.12 11.081,0.341 1.477,-3.241 1.368,-11.773 -0.216,-16.953 -1.033,-3.377 -1.605,-3.96 -3.673,-3.745 -18.574,1.933 -30.046,1.112 -40.237,-2.88 -5.802,-2.273 -6.609,-2.31 -7.365,-0.34 m 6.652,7.706 c 0,4.326 12.606,24.759 15.275,24.759 0.569,0 0.322,-0.788 -0.55,-1.752 -2.475,-2.735 -3.563,-6.498 -2.613,-9.042 1.22,-3.268 6.599,-5.156 15.441,-5.42 7.715,-0.23 9.365,0.468 10.72,4.533 0.783,2.348 2.727,-0.715 2.727,-4.296 0,-7.104 0.157,-7.023 -13.558,-7.023 -7.747,0 -14.489,-0.559 -18.103,-1.5 -7.007,-1.825 -9.339,-1.89 -9.339,-0.259 m 63.928,10.009 c -1.621,3.438 -3.465,6.976 -4.097,7.864 -2.676,3.759 2.717,6.868 11.934,6.88 3.741,0.005 4.508,-0.393 6.246,-3.244 1.09,-1.787 1.983,-3.506 1.985,-3.82 0.002,-0.313 -1.399,-2.113 -3.115,-4 -1.715,-1.886 -3.746,-4.893 -4.513,-6.68 -2.284,-5.322 -4.966,-4.369 -8.44,3 m 3.047,5.315 c -1.476,3.882 -1.231,4.435 1.966,4.435 3.789,0 4.637,-1.469 2.622,-4.544 -2.057,-3.139 -3.364,-3.108 -4.588,0.109"
     stroke="none"
     fill="#f2ceb1"
     fill-rule="evenodd"
     id="path132" />
  <path
     d="m 320.407,8.3495415 c -0.346,1.382 -0.692,6.2189995 -0.769,10.7499995 l -0.138,8.237 -9,-0.021 c -7.985,-0.019 -9.754,-0.376 -15.684,-3.166 l -6.683,-3.146 -1.384,2.085 -1.385,2.085 -8.646,-2.169 c -9.925,-2.489 -13.142,-2.726 -12.462,-0.918 1.742,4.636 1.808,5.788 0.365,6.342 -0.835,0.32 -7.895,-1.032 -15.689,-3.005 -20.746,-5.251 -23.998,-4.667 -10.858,1.95 9.409,4.739 9.427,7.937 0.058,9.95 -2.275,0.489 -6.41,-0.019 -12.735,-1.564 -13.09,-3.198 -13.735,-1.362 -1.647,4.685 5.677,2.84 6.333,4.309 3.284,7.358 -9.189,9.189 -26.893,13.362 -63.534,14.976 -25.174,1.108 -28.67,2.401 -47.5,17.558 -11.886,9.567 -17.145,12.762 -22.778,13.836 -5.083,0.969 -10.294,-1.665 -14.537,-7.349 -5.521,-7.395 -7.496,-8.378 -15.476,-7.702 -3.789,0.321 -10.408,1.947 -15.209,3.738 -7.901,2.946 -9.169,3.135 -18,2.692 -8.066,-0.405 -10.53,-0.967 -16.322,-3.724 -8.834,-4.205 -10.138,-3.177 -5.389,4.247 4.626,7.232 10.211,12.589 15.711,15.070999 6.403,2.889 17.807,3.397 26.025,1.158 11.411,-3.107999 13.229,-3.044999 19.678,0.682 5.68,3.283 6.045,3.353 18.059,3.443 l 12.263,0.093 5.737,9.312 c 7.835,12.714 18.466,23.426 29.167,29.387 17.967,10.01 26.058,17.701 27.672,26.304 0.344,1.834 1.137,3.667 1.762,4.073 0.626,0.406 7.305,0.739 14.845,0.739 11.484,0 13.98,0.272 15.389,1.675 1.575,1.568 1.512,1.963 -0.982,6.219 -2.47,4.215 -3.03,4.592 -7.75,5.218 -4.484,0.595 -5.237,1.044 -6.353,3.782 -0.696,1.708 -1.585,5.321 -1.976,8.028 l -0.71,4.922 2.837,-1.825 c 1.56,-1.003 4.477,-3.106 6.481,-4.672 2.004,-1.566 4.41,-2.847 5.346,-2.847 2.86,0 7.361,-3.226 8.569,-6.142 1.207,-2.915 4.886,-5.858 7.323,-5.858 0.798,0 3.946,3.56 6.996,7.912 4.152,5.927 6.27,8.071 8.439,8.548 1.593,0.35 3.298,0.561 3.789,0.469 3.277,-0.609 6.079,0.631 10.263,4.546 l 4.784,4.474 5.707,-1.623 c 3.139,-0.893 5.548,-2.101 5.354,-2.684 -0.194,-0.583 -2.453,-2.428 -5.021,-4.101 -4.052,-2.641 -4.64,-3.454 -4.465,-6.179 0.275,-4.269 -0.859,-5.357 -10.649,-10.208 -9.189,-4.553 -13.13,-8.284 -11.632,-11.011 0.496,-0.904 3.108,-3.799 5.803,-6.434 l 4.901,-4.79 11.925,-0.546 c 9.18,-0.42 13.062,-0.189 16.869,1.002 6.063,1.896 8.818,0.853 11.888,-4.5 l 2.078,-3.625 -3.244,-7.039 c -1.784,-3.871 -3.952,-10.79 -4.816,-15.375 -0.865,-4.585 -2.697,-10.557 -4.072,-13.271 -2.001,-3.949 -2.379,-5.82 -1.892,-9.368 0.85,-6.206 5.195,-15.413999 8.949,-18.963999 5.126,-4.85 31.359,-23.018 38.522,-26.679 4.719,-2.413 7.463,-1.357 12.247,4.712 4.586,5.818 6.144,6.677 13.395,7.392 2.75,0.271 6.452,0.941 8.226,1.487 4.14,1.276 10.734,8.759 12.445,14.123 1.084,3.396 2.02,4.427 5.074,5.582 l 3.746,1.417999 3.968,-4.383999 c 2.183,-2.411 4.241,-5.175 4.575,-6.142 0.767,-2.226 -2.652,-9.713 -9.777,-21.408 -3.067,-5.035 -7.885,-13.647 -10.706,-19.139 -4.028,-7.843 -5.771,-10.251 -8.124,-11.225 -5.039,-2.088 -10.19,-9.094 -15.33,-20.851 -2.673,-6.115 -5.243,-11.1189995 -5.71,-11.1189995 -0.467,0 -1.133,1.131 -1.48,2.513 M 172.348,125.37154 c -1.581,4.121 7.674,25.472 14.239,32.85 4.012,4.509 6.777,5.564 11.464,4.374 3.118,-0.791 4.423,-0.53 8.807,1.762 5.782,3.024 8.142,2.737 8.142,-0.99 0,-1.392 0.113,-2.792 0.25,-3.11 0.137,-0.319 -2.695,-1.609 -6.294,-2.868 -16.139,-5.644 -17.363,-9.302 -3.614,-10.8 4.4,-0.48 5.078,-0.264 7.416,2.359 3.51,3.94 9.36,4.12 11.081,0.341 1.477,-3.241 1.368,-11.773 -0.216,-16.953 -1.033,-3.377 -1.605,-3.96 -3.673,-3.745 -18.574,1.933 -30.046,1.112 -40.237,-2.88 -5.802,-2.273 -6.609,-2.31 -7.365,-0.34 m 70.58,17.715 c -1.621,3.438 -3.465,6.976 -4.097,7.864 -2.676,3.759 2.717,6.868 11.934,6.88 3.741,0.005 4.508,-0.393 6.246,-3.244 1.09,-1.787 1.983,-3.506 1.985,-3.82 0.002,-0.313 -1.399,-2.113 -3.115,-4 -1.715,-1.886 -3.746,-4.893 -4.513,-6.68 -2.284,-5.322 -4.966,-4.369 -8.44,3"
     stroke="none"
     fill="#ffa567"
     fill-rule="evenodd"
     id="path134" />
</svg>
